<?xml version="1.0" encoding="UTF-8" standalone="no"?><svg xmlns="http://www.w3.org/2000/svg" xmlns:xlink="http://www.w3.org/1999/xlink" clip-rule="evenodd" stroke-miterlimit="4.00" viewBox="0 0 1024 768"><desc>SVG generated by Keynote</desc><defs></defs><g transform="matrix(1.00, 0.00, -0.00, -1.00, 0.0, 768.0)"><path d="M 0.0 768.0 L 1024.0 768.0 L 1024.0 0.0 L 0.0 0.0 Z M 0.0 768.0 " fill="#000000"></path><text xml:space="preserve" font-family="Helvetica-Light" font-size="60.0" fill="#FFE900" transform="matrix(1.00, 0.00, -0.00, -1.00, 272.0, 641.0)">G</text><text xml:space="preserve" font-family="Helvetica-Light" font-size="60.0" fill="#FFE900" transform="matrix(1.00, 0.00, -0.00, -1.00, 318.7, 641.0)">i</text><text xml:space="preserve" font-family="Helvetica-Light" font-size="60.0" fill="#FFE900" transform="matrix(1.00, 0.00, -0.00, -1.00, 332.0, 641.0)">t</text><text xml:space="preserve" font-family="Helvetica-Light" font-size="60.0" fill="#FFE900" transform="matrix(1.00, 0.00, -0.00, -1.00, 348.7, 641.0)"> </text><text xml:space="preserve" font-family="Helvetica-Light" font-size="60.0" fill="#FFE900" transform="matrix(1.00, 0.00, -0.00, -1.00, 365.4, 641.0)">c</text><text xml:space="preserve" font-family="Helvetica-Light" font-size="60.0" fill="#FFE900" transform="matrix(1.00, 0.00, -0.00, -1.00, 398.7, 641.0)">o</text><text xml:space="preserve" font-family="Helvetica-Light" font-size="60.0" fill="#FFE900" transform="matrix(1.00, 0.00, -0.00, -1.00, 432.1, 641.0)">m</text><text xml:space="preserve" font-family="Helvetica-Light" font-size="60.0" fill="#FFE900" transform="matrix(1.00, 0.00, -0.00, -1.00, 482.1, 641.0)">m</text><text xml:space="preserve" font-family="Helvetica-Light" font-size="60.0" fill="#FFE900" transform="matrix(1.00, 0.00, -0.00, -1.00, 532.0, 641.0)">a</text><text xml:space="preserve" font-family="Helvetica-Light" font-size="60.0" fill="#FFE900" transform="matrix(1.00, 0.00, -0.00, -1.00, 565.4, 641.0)">n</text><text xml:space="preserve" font-family="Helvetica-Light" font-size="60.0" fill="#FFE900" transform="matrix(1.00, 0.00, -0.00, -1.00, 598.8, 641.0)">d</text><text xml:space="preserve" font-family="Helvetica-Light" font-size="60.0" fill="#FFE900" transform="matrix(1.00, 0.00, -0.00, -1.00, 635.4, 641.0)">s</text><text xml:space="preserve" font-family="Helvetica-Light" font-size="60.0" fill="#FFE900" transform="matrix(1.00, 0.00, -0.00, -1.00, 665.4, 641.0)"> </text><text xml:space="preserve" font-family="Helvetica-Light" font-size="60.0" fill="#FFE900" transform="matrix(1.00, 0.00, -0.00, -1.00, 682.1, 641.0)">-</text><text xml:space="preserve" font-family="Helvetica-Light" font-size="60.0" fill="#FFE900" transform="matrix(1.00, 0.00, -0.00, -1.00, 702.1, 641.0)"> </text><text xml:space="preserve" font-family="Helvetica-Light" font-size="60.0" fill="#FFE900" transform="matrix(1.00, 0.00, -0.00, -1.00, 718.8, 641.0)">1</text><text xml:space="preserve" font-family="Avenir-Book" font-size="28.5" fill="#FEFFFF" transform="matrix(1.00, 0.00, -0.00, -1.00, 79.0, 508.9)">•</text><text xml:space="preserve" font-family="Avenir-Book" font-size="38.0" fill="#FEFFFF" transform="matrix(1.00, 0.00, -0.00, -1.00, 114.0, 506.0)">C</text><text xml:space="preserve" font-family="Avenir-Book" font-size="38.0" fill="#FEFFFF" transform="matrix(1.00, 0.00, -0.00, -1.00, 140.8, 506.0)">r</text><text xml:space="preserve" font-family="Avenir-Book" font-size="38.0" fill="#FEFFFF" transform="matrix(1.00, 0.00, -0.00, -1.00, 152.7, 506.0)">e</text><text xml:space="preserve" font-family="Avenir-Book" font-size="38.0" fill="#FEFFFF" transform="matrix(1.00, 0.00, -0.00, -1.00, 173.8, 506.0)">a</text><text xml:space="preserve" font-family="Avenir-Book" font-size="38.0" fill="#FEFFFF" transform="matrix(1.00, 0.00, -0.00, -1.00, 193.5, 506.0)">t</text><text xml:space="preserve" font-family="Avenir-Book" font-size="38.0" fill="#FEFFFF" transform="matrix(1.00, 0.00, -0.00, -1.00, 206.1, 506.0)">e</text><text xml:space="preserve" font-family="Avenir-Book" font-size="38.0" fill="#FEFFFF" transform="matrix(1.00, 0.00, -0.00, -1.00, 227.3, 506.0)"> </text><text xml:space="preserve" font-family="Avenir-Book" font-size="38.0" fill="#FEFFFF" transform="matrix(1.00, 0.00, -0.00, -1.00, 237.8, 506.0)">a</text><text xml:space="preserve" font-family="Avenir-Book" font-size="38.0" fill="#FEFFFF" transform="matrix(1.00, 0.00, -0.00, -1.00, 257.6, 506.0)"> </text><text xml:space="preserve" font-family="Avenir-Book" font-size="38.0" fill="#FEFFFF" transform="matrix(1.00, 0.00, -0.00, -1.00, 268.1, 506.0)">n</text><text xml:space="preserve" font-family="Avenir-Book" font-size="38.0" fill="#FEFFFF" transform="matrix(1.00, 0.00, -0.00, -1.00, 289.3, 506.0)">e</text><text xml:space="preserve" font-family="Avenir-Book" font-size="38.0" fill="#FEFFFF" transform="matrix(1.00, 0.00, -0.00, -1.00, 310.4, 506.0)">w</text><text xml:space="preserve" font-family="Avenir-Book" font-size="38.0" fill="#FEFFFF" transform="matrix(1.00, 0.00, -0.00, -1.00, 337.8, 506.0)"> </text><text xml:space="preserve" font-family="Avenir-Book" font-size="38.0" fill="#FEFFFF" transform="matrix(1.00, 0.00, -0.00, -1.00, 348.4, 506.0)">r</text><text xml:space="preserve" font-family="Avenir-Book" font-size="38.0" fill="#FEFFFF" transform="matrix(1.00, 0.00, -0.00, -1.00, 360.3, 506.0)">e</text><text xml:space="preserve" font-family="Avenir-Book" font-size="38.0" fill="#FEFFFF" transform="matrix(1.00, 0.00, -0.00, -1.00, 381.4, 506.0)">p</text><text xml:space="preserve" font-family="Avenir-Book" font-size="38.0" fill="#FEFFFF" transform="matrix(1.00, 0.00, -0.00, -1.00, 404.7, 506.0)">o</text><text xml:space="preserve" font-family="Avenir-Book" font-size="38.0" fill="#FEFFFF" transform="matrix(1.00, 0.00, -0.00, -1.00, 427.2, 506.0)">s</text><text xml:space="preserve" font-family="Avenir-Book" font-size="38.0" fill="#FEFFFF" transform="matrix(1.00, 0.00, -0.00, -1.00, 443.4, 506.0)">i</text><text xml:space="preserve" font-family="Avenir-Book" font-size="38.0" fill="#FEFFFF" transform="matrix(1.00, 0.00, -0.00, -1.00, 452.5, 506.0)">t</text><text xml:space="preserve" font-family="Avenir-Book" font-size="38.0" fill="#FEFFFF" transform="matrix(1.00, 0.00, -0.00, -1.00, 465.1, 506.0)">o</text><text xml:space="preserve" font-family="Avenir-Book" font-size="38.0" fill="#FEFFFF" transform="matrix(1.00, 0.00, -0.00, -1.00, 487.7, 506.0)">r</text><text xml:space="preserve" font-family="Avenir-Book" font-size="38.0" fill="#FEFFFF" transform="matrix(1.00, 0.00, -0.00, -1.00, 500.3, 506.0)">y</text><text xml:space="preserve" font-family="Avenir-Book" font-size="38.0" fill="#FEFFFF" transform="matrix(1.00, 0.00, -0.00, -1.00, 518.6, 506.0)"> </text><text xml:space="preserve" font-family="ArialRoundedMTBold" font-size="38.0" fill="#FF3021" transform="matrix(1.00, 0.00, -0.00, -1.00, 455.0, 414.0)">g</text><text xml:space="preserve" font-family="ArialRoundedMTBold" font-size="38.0" fill="#FF3021" transform="matrix(1.00, 0.00, -0.00, -1.00, 478.8, 414.0)">i</text><text xml:space="preserve" font-family="ArialRoundedMTBold" font-size="38.0" fill="#FF3021" transform="matrix(1.00, 0.00, -0.00, -1.00, 489.0, 414.0)">t</text><text xml:space="preserve" font-family="ArialRoundedMTBold" font-size="38.0" fill="#FF3021" transform="matrix(1.00, 0.00, -0.00, -1.00, 502.5, 414.0)"> </text><text xml:space="preserve" font-family="ArialRoundedMTBold" font-size="38.0" fill="#FF3021" transform="matrix(1.00, 0.00, -0.00, -1.00, 512.0, 414.0)">i</text><text xml:space="preserve" font-family="ArialRoundedMTBold" font-size="38.0" fill="#FF3021" transform="matrix(1.00, 0.00, -0.00, -1.00, 522.3, 414.0)">n</text><text xml:space="preserve" font-family="ArialRoundedMTBold" font-size="38.0" fill="#FF3021" transform="matrix(1.00, 0.00, -0.00, -1.00, 545.2, 414.0)">i</text><text xml:space="preserve" font-family="ArialRoundedMTBold" font-size="38.0" fill="#FF3021" transform="matrix(1.00, 0.00, -0.00, -1.00, 555.5, 414.0)">t</text><text xml:space="preserve" font-family="ArialRoundedMTBold" font-size="38.0" fill="#FF3021" transform="matrix(1.00, 0.00, -0.00, -1.00, 569.0, 414.0)"> </text><text xml:space="preserve" font-family="Avenir-Book" font-size="38.0" fill="#FEFFFF" transform="matrix(1.00, 0.00, -0.00, -1.00, 578.5, 414.0)"> </text><text xml:space="preserve" font-family="Avenir-Book" font-size="28.5" fill="#FEFFFF" transform="matrix(1.00, 0.00, -0.00, -1.00, 79.0, 328.9)">•</text><text xml:space="preserve" font-family="Avenir-Book" font-size="38.0" fill="#FEFFFF" transform="matrix(1.00, 0.00, -0.00, -1.00, 114.0, 326.0)">W</text><text xml:space="preserve" font-family="Avenir-Book" font-size="38.0" fill="#FEFFFF" transform="matrix(1.00, 0.00, -0.00, -1.00, 149.2, 326.0)">o</text><text xml:space="preserve" font-family="Avenir-Book" font-size="38.0" fill="#FEFFFF" transform="matrix(1.00, 0.00, -0.00, -1.00, 171.7, 326.0)">r</text><text xml:space="preserve" font-family="Avenir-Book" font-size="38.0" fill="#FEFFFF" transform="matrix(1.00, 0.00, -0.00, -1.00, 184.3, 326.0)">k</text><text xml:space="preserve" font-family="Avenir-Book" font-size="38.0" fill="#FEFFFF" transform="matrix(1.00, 0.00, -0.00, -1.00, 202.7, 326.0)">f</text><text xml:space="preserve" font-family="Avenir-Book" font-size="38.0" fill="#FEFFFF" transform="matrix(1.00, 0.00, -0.00, -1.00, 213.9, 326.0)">l</text><text xml:space="preserve" font-family="Avenir-Book" font-size="38.0" fill="#FEFFFF" transform="matrix(1.00, 0.00, -0.00, -1.00, 223.0, 326.0)">o</text><text xml:space="preserve" font-family="Avenir-Book" font-size="38.0" fill="#FEFFFF" transform="matrix(1.00, 0.00, -0.00, -1.00, 245.6, 326.0)">w</text><text xml:space="preserve" font-family="Avenir-Book" font-size="38.0" fill="#FEFFFF" transform="matrix(1.00, 0.00, -0.00, -1.00, 273.0, 326.0)"> </text><text xml:space="preserve" font-family="Avenir-Book" font-size="38.0" fill="#FEFFFF" transform="matrix(1.00, 0.00, -0.00, -1.00, 283.6, 326.0)">-</text><text xml:space="preserve" font-family="Avenir-Book" font-size="38.0" fill="#FEFFFF" transform="matrix(1.00, 0.00, -0.00, -1.00, 296.2, 326.0)"> </text><text xml:space="preserve" font-family="ArialRoundedMTBold" font-size="38.0" fill="#FF3021" transform="matrix(1.00, 0.00, -0.00, -1.00, 306.8, 326.0)">W</text><text xml:space="preserve" font-family="ArialRoundedMTBold" font-size="38.0" fill="#FF3021" transform="matrix(1.00, 0.00, -0.00, -1.00, 341.5, 326.0)">o</text><text xml:space="preserve" font-family="ArialRoundedMTBold" font-size="38.0" fill="#FF3021" transform="matrix(1.00, 0.00, -0.00, -1.00, 364.4, 326.0)">r</text><text xml:space="preserve" font-family="ArialRoundedMTBold" font-size="38.0" fill="#FF3021" transform="matrix(1.00, 0.00, -0.00, -1.00, 380.1, 326.0)">k</text><text xml:space="preserve" font-family="ArialRoundedMTBold" font-size="38.0" fill="#FF3021" transform="matrix(1.00, 0.00, -0.00, -1.00, 401.0, 326.0)">i</text><text xml:space="preserve" font-family="ArialRoundedMTBold" font-size="38.0" fill="#FF3021" transform="matrix(1.00, 0.00, -0.00, -1.00, 411.3, 326.0)">n</text><text xml:space="preserve" font-family="ArialRoundedMTBold" font-size="38.0" fill="#FF3021" transform="matrix(1.00, 0.00, -0.00, -1.00, 434.2, 326.0)">g</text><text xml:space="preserve" font-family="ArialRoundedMTBold" font-size="38.0" fill="#FF3021" transform="matrix(1.00, 0.00, -0.00, -1.00, 458.0, 326.0)"> </text><text xml:space="preserve" font-family="ArialRoundedMTBold" font-size="38.0" fill="#FF3021" transform="matrix(1.00, 0.00, -0.00, -1.00, 467.5, 326.0)">D</text><text xml:space="preserve" font-family="ArialRoundedMTBold" font-size="38.0" fill="#FF3021" transform="matrix(1.00, 0.00, -0.00, -1.00, 495.6, 326.0)">i</text><text xml:space="preserve" font-family="ArialRoundedMTBold" font-size="38.0" fill="#FF3021" transform="matrix(1.00, 0.00, -0.00, -1.00, 505.9, 326.0)">r</text><text xml:space="preserve" font-family="ArialRoundedMTBold" font-size="38.0" fill="#FF3021" transform="matrix(1.00, 0.00, -0.00, -1.00, 521.6, 326.0)">e</text><text xml:space="preserve" font-family="ArialRoundedMTBold" font-size="38.0" fill="#FF3021" transform="matrix(1.00, 0.00, -0.00, -1.00, 544.2, 326.0)">c</text><text xml:space="preserve" font-family="ArialRoundedMTBold" font-size="38.0" fill="#FF3021" transform="matrix(1.00, 0.00, -0.00, -1.00, 566.8, 326.0)">t</text><text xml:space="preserve" font-family="ArialRoundedMTBold" font-size="38.0" fill="#FF3021" transform="matrix(1.00, 0.00, -0.00, -1.00, 580.2, 326.0)">o</text><text xml:space="preserve" font-family="ArialRoundedMTBold" font-size="38.0" fill="#FF3021" transform="matrix(1.00, 0.00, -0.00, -1.00, 603.2, 326.0)">r</text><text xml:space="preserve" font-family="ArialRoundedMTBold" font-size="38.0" fill="#FF3021" transform="matrix(1.00, 0.00, -0.00, -1.00, 619.8, 326.0)">y</text><text xml:space="preserve" font-family="ArialRoundedMTBold" font-size="38.0" fill="#FF3021" transform="matrix(1.00, 0.00, -0.00, -1.00, 637.6, 326.0)">,</text><text xml:space="preserve" font-family="ArialRoundedMTBold" font-size="38.0" fill="#FF3021" transform="matrix(1.00, 0.00, -0.00, -1.00, 649.5, 326.0)"> </text><text xml:space="preserve" font-family="ArialRoundedMTBold" font-size="38.0" fill="#FF3021" transform="matrix(1.00, 0.00, -0.00, -1.00, 659.0, 326.0)">I</text><text xml:space="preserve" font-family="ArialRoundedMTBold" font-size="38.0" fill="#FF3021" transform="matrix(1.00, 0.00, -0.00, -1.00, 670.8, 326.0)">n</text><text xml:space="preserve" font-family="ArialRoundedMTBold" font-size="38.0" fill="#FF3021" transform="matrix(1.00, 0.00, -0.00, -1.00, 693.8, 326.0)">d</text><text xml:space="preserve" font-family="ArialRoundedMTBold" font-size="38.0" fill="#FF3021" transform="matrix(1.00, 0.00, -0.00, -1.00, 717.5, 326.0)">e</text><text xml:space="preserve" font-family="ArialRoundedMTBold" font-size="38.0" fill="#FF3021" transform="matrix(1.00, 0.00, -0.00, -1.00, 739.6, 326.0)">x</text><text xml:space="preserve" font-family="ArialRoundedMTBold" font-size="38.0" fill="#FF3021" transform="matrix(1.00, 0.00, -0.00, -1.00, 759.4, 326.0)"> </text><text xml:space="preserve" font-family="ArialRoundedMTBold" font-size="38.0" fill="#FF3021" transform="matrix(1.00, 0.00, -0.00, -1.00, 768.9, 326.0)">a</text><text xml:space="preserve" font-family="ArialRoundedMTBold" font-size="38.0" fill="#FF3021" transform="matrix(1.00, 0.00, -0.00, -1.00, 791.5, 326.0)">n</text><text xml:space="preserve" font-family="ArialRoundedMTBold" font-size="38.0" fill="#FF3021" transform="matrix(1.00, 0.00, -0.00, -1.00, 814.5, 326.0)">d</text><text xml:space="preserve" font-family="ArialRoundedMTBold" font-size="38.0" fill="#FF3021" transform="matrix(1.00, 0.00, -0.00, -1.00, 838.2, 326.0)"> </text><text xml:space="preserve" font-family="ArialRoundedMTBold" font-size="38.0" fill="#FF3021" transform="matrix(1.00, 0.00, -0.00, -1.00, 114.0, 276.0)">H</text><text xml:space="preserve" font-family="ArialRoundedMTBold" font-size="38.0" fill="#FF3021" transform="matrix(1.00, 0.00, -0.00, -1.00, 142.9, 276.0)">e</text><text xml:space="preserve" font-family="ArialRoundedMTBold" font-size="38.0" fill="#FF3021" transform="matrix(1.00, 0.00, -0.00, -1.00, 165.4, 276.0)">a</text><text xml:space="preserve" font-family="ArialRoundedMTBold" font-size="38.0" fill="#FF3021" transform="matrix(1.00, 0.00, -0.00, -1.00, 188.0, 276.0)">d</text><text xml:space="preserve" font-family="Avenir-Book" font-size="38.0" fill="#FEFFFF" transform="matrix(1.00, 0.00, -0.00, -1.00, 211.8, 276.0)"> </text><text xml:space="preserve" font-family="Avenir-Book" font-size="28.5" fill="#FEFFFF" transform="matrix(1.00, 0.00, -0.00, -1.00, 79.0, 190.9)">•</text><text xml:space="preserve" font-family="Avenir-Book" font-size="38.0" fill="#FEFFFF" transform="matrix(1.00, 0.00, -0.00, -1.00, 114.0, 188.0)">P</text><text xml:space="preserve" font-family="Avenir-Book" font-size="38.0" fill="#FEFFFF" transform="matrix(1.00, 0.00, -0.00, -1.00, 135.8, 188.0)">r</text><text xml:space="preserve" font-family="Avenir-Book" font-size="38.0" fill="#FEFFFF" transform="matrix(1.00, 0.00, -0.00, -1.00, 147.7, 188.0)">o</text><text xml:space="preserve" font-family="Avenir-Book" font-size="38.0" fill="#FEFFFF" transform="matrix(1.00, 0.00, -0.00, -1.00, 170.3, 188.0)">p</text><text xml:space="preserve" font-family="Avenir-Book" font-size="38.0" fill="#FEFFFF" transform="matrix(1.00, 0.00, -0.00, -1.00, 193.5, 188.0)">o</text><text xml:space="preserve" font-family="Avenir-Book" font-size="38.0" fill="#FEFFFF" transform="matrix(1.00, 0.00, -0.00, -1.00, 216.0, 188.0)">s</text><text xml:space="preserve" font-family="Avenir-Book" font-size="38.0" fill="#FEFFFF" transform="matrix(1.00, 0.00, -0.00, -1.00, 232.2, 188.0)">e</text><text xml:space="preserve" font-family="Avenir-Book" font-size="38.0" fill="#FEFFFF" transform="matrix(1.00, 0.00, -0.00, -1.00, 253.3, 188.0)"> </text><text xml:space="preserve" font-family="Avenir-Book" font-size="38.0" fill="#FEFFFF" transform="matrix(1.00, 0.00, -0.00, -1.00, 263.9, 188.0)">c</text><text xml:space="preserve" font-family="Avenir-Book" font-size="38.0" fill="#FEFFFF" transform="matrix(1.00, 0.00, -0.00, -1.00, 282.2, 188.0)">h</text><text xml:space="preserve" font-family="Avenir-Book" font-size="38.0" fill="#FEFFFF" transform="matrix(1.00, 0.00, -0.00, -1.00, 303.4, 188.0)">a</text><text xml:space="preserve" font-family="Avenir-Book" font-size="38.0" fill="#FEFFFF" transform="matrix(1.00, 0.00, -0.00, -1.00, 323.1, 188.0)">n</text><text xml:space="preserve" font-family="Avenir-Book" font-size="38.0" fill="#FEFFFF" transform="matrix(1.00, 0.00, -0.00, -1.00, 344.2, 188.0)">g</text><text xml:space="preserve" font-family="Avenir-Book" font-size="38.0" fill="#FEFFFF" transform="matrix(1.00, 0.00, -0.00, -1.00, 367.4, 188.0)">e</text><text xml:space="preserve" font-family="Avenir-Book" font-size="38.0" fill="#FEFFFF" transform="matrix(1.00, 0.00, -0.00, -1.00, 388.6, 188.0)">s</text><text xml:space="preserve" font-family="Avenir-Book" font-size="38.0" fill="#FEFFFF" transform="matrix(1.00, 0.00, -0.00, -1.00, 404.7, 188.0)"> </text><text xml:space="preserve" font-family="Avenir-Book" font-size="38.0" fill="#FEFFFF" transform="matrix(1.00, 0.00, -0.00, -1.00, 415.3, 188.0)">t</text><text xml:space="preserve" font-family="Avenir-Book" font-size="38.0" fill="#FEFFFF" transform="matrix(1.00, 0.00, -0.00, -1.00, 427.9, 188.0)">o</text><text xml:space="preserve" font-family="Avenir-Book" font-size="38.0" fill="#FEFFFF" transform="matrix(1.00, 0.00, -0.00, -1.00, 450.5, 188.0)"> </text><text xml:space="preserve" font-family="Avenir-Book" font-size="38.0" fill="#FEFFFF" transform="matrix(1.00, 0.00, -0.00, -1.00, 461.0, 188.0)">I</text><text xml:space="preserve" font-family="Avenir-Book" font-size="38.0" fill="#FEFFFF" transform="matrix(1.00, 0.00, -0.00, -1.00, 471.0, 188.0)">n</text><text xml:space="preserve" font-family="Avenir-Book" font-size="38.0" fill="#FEFFFF" transform="matrix(1.00, 0.00, -0.00, -1.00, 492.2, 188.0)">d</text><text xml:space="preserve" font-family="Avenir-Book" font-size="38.0" fill="#FEFFFF" transform="matrix(1.00, 0.00, -0.00, -1.00, 515.4, 188.0)">e</text><text xml:space="preserve" font-family="Avenir-Book" font-size="38.0" fill="#FEFFFF" transform="matrix(1.00, 0.00, -0.00, -1.00, 536.5, 188.0)">x</text><text xml:space="preserve" font-family="Avenir-Book" font-size="38.0" fill="#FEFFFF" transform="matrix(1.00, 0.00, -0.00, -1.00, 554.8, 188.0)"> </text><text xml:space="preserve" font-family="ArialRoundedMTBold" font-size="38.0" fill="#FF3021" transform="matrix(1.00, 0.00, -0.00, -1.00, 343.0, 96.0)">g</text><text xml:space="preserve" font-family="ArialRoundedMTBold" font-size="38.0" fill="#FF3021" transform="matrix(1.00, 0.00, -0.00, -1.00, 366.8, 96.0)">i</text><text xml:space="preserve" font-family="ArialRoundedMTBold" font-size="38.0" fill="#FF3021" transform="matrix(1.00, 0.00, -0.00, -1.00, 377.0, 96.0)">t</text><text xml:space="preserve" font-family="ArialRoundedMTBold" font-size="38.0" fill="#FF3021" transform="matrix(1.00, 0.00, -0.00, -1.00, 390.5, 96.0)"> </text><text xml:space="preserve" font-family="ArialRoundedMTBold" font-size="38.0" fill="#FF3021" transform="matrix(1.00, 0.00, -0.00, -1.00, 400.0, 96.0)">a</text><text xml:space="preserve" font-family="ArialRoundedMTBold" font-size="38.0" fill="#FF3021" transform="matrix(1.00, 0.00, -0.00, -1.00, 422.6, 96.0)">d</text><text xml:space="preserve" font-family="ArialRoundedMTBold" font-size="38.0" fill="#FF3021" transform="matrix(1.00, 0.00, -0.00, -1.00, 446.3, 96.0)">d</text><text xml:space="preserve" font-family="ArialRoundedMTBold" font-size="38.0" fill="#FF3021" transform="matrix(1.00, 0.00, -0.00, -1.00, 470.1, 96.0)"> </text><text xml:space="preserve" font-family="ArialRoundedMTBold" font-size="38.0" fill="#FF3021" transform="matrix(1.00, 0.00, -0.00, -1.00, 479.6, 96.0)">&lt;</text><text xml:space="preserve" font-family="ArialRoundedMTBold" font-size="38.0" fill="#1F70FC" transform="matrix(1.00, 0.00, -0.00, -1.00, 501.7, 96.0)">f</text><text xml:space="preserve" font-family="ArialRoundedMTBold" font-size="38.0" fill="#1F70FC" transform="matrix(1.00, 0.00, -0.00, -1.00, 514.9, 96.0)">i</text><text xml:space="preserve" font-family="ArialRoundedMTBold" font-size="38.0" fill="#1F70FC" transform="matrix(1.00, 0.00, -0.00, -1.00, 525.2, 96.0)">l</text><text xml:space="preserve" font-family="ArialRoundedMTBold" font-size="38.0" fill="#1F70FC" transform="matrix(1.00, 0.00, -0.00, -1.00, 535.4, 96.0)">e</text><text xml:space="preserve" font-family="ArialRoundedMTBold" font-size="38.0" fill="#1F70FC" transform="matrix(1.00, 0.00, -0.00, -1.00, 558.0, 96.0)">n</text><text xml:space="preserve" font-family="ArialRoundedMTBold" font-size="38.0" fill="#1F70FC" transform="matrix(1.00, 0.00, -0.00, -1.00, 581.0, 96.0)">a</text><text xml:space="preserve" font-family="ArialRoundedMTBold" font-size="38.0" fill="#1F70FC" transform="matrix(1.00, 0.00, -0.00, -1.00, 603.6, 96.0)">m</text><text xml:space="preserve" font-family="ArialRoundedMTBold" font-size="38.0" fill="#1F70FC" transform="matrix(1.00, 0.00, -0.00, -1.00, 637.2, 96.0)">e</text><text xml:space="preserve" font-family="ArialRoundedMTBold" font-size="38.0" fill="#FF3021" transform="matrix(1.00, 0.00, -0.00, -1.00, 659.8, 96.0)">&gt;</text><text xml:space="preserve" font-family="Helvetica-Light" font-size="18.0" fill="#FEFFFF" transform="matrix(1.00, 0.00, -0.00, -1.00, 506.0, 17.0)">5</text></g></svg>