<?xml version="1.0" encoding="UTF-8" standalone="no"?><svg xmlns="http://www.w3.org/2000/svg" xmlns:xlink="http://www.w3.org/1999/xlink" clip-rule="evenodd" stroke-miterlimit="4.00" viewBox="0 0 1024 768"><desc>SVG generated by Keynote</desc><defs></defs><g transform="matrix(1.00, 0.00, -0.00, -1.00, 0.0, 768.0)"><path d="M 0.0 768.0 L 1024.0 768.0 L 1024.0 0.0 L 0.0 0.0 Z M 0.0 768.0 " fill="#000000"></path><text xml:space="preserve" font-family="Avenir-Book" font-size="46.0" fill="#FEFFFF" transform="matrix(1.00, 0.00, -0.00, -1.00, 219.0, 569.0)">T</text><text xml:space="preserve" font-family="Avenir-Book" font-size="46.0" fill="#FEFFFF" transform="matrix(1.00, 0.00, -0.00, -1.00, 245.1, 569.0)">i</text><text xml:space="preserve" font-family="Avenir-Book" font-size="46.0" fill="#FEFFFF" transform="matrix(1.00, 0.00, -0.00, -1.00, 256.1, 569.0)">m</text><text xml:space="preserve" font-family="Avenir-Book" font-size="46.0" fill="#FEFFFF" transform="matrix(1.00, 0.00, -0.00, -1.00, 295.3, 569.0)">e</text><text xml:space="preserve" font-family="Avenir-Book" font-size="46.0" fill="#FEFFFF" transform="matrix(1.00, 0.00, -0.00, -1.00, 320.9, 569.0)"> </text><text xml:space="preserve" font-family="Avenir-Book" font-size="46.0" fill="#FEFFFF" transform="matrix(1.00, 0.00, -0.00, -1.00, 333.7, 569.0)">f</text><text xml:space="preserve" font-family="Avenir-Book" font-size="46.0" fill="#FEFFFF" transform="matrix(1.00, 0.00, -0.00, -1.00, 347.3, 569.0)">o</text><text xml:space="preserve" font-family="Avenir-Book" font-size="46.0" fill="#FEFFFF" transform="matrix(1.00, 0.00, -0.00, -1.00, 374.6, 569.0)">r</text><text xml:space="preserve" font-family="Avenir-Book" font-size="46.0" fill="#FEFFFF" transform="matrix(1.00, 0.00, -0.00, -1.00, 389.8, 569.0)"> </text><text xml:space="preserve" font-family="Avenir-Book" font-size="46.0" fill="#FEFFFF" transform="matrix(1.00, 0.00, -0.00, -1.00, 402.6, 569.0)">a</text><text xml:space="preserve" font-family="Avenir-Book" font-size="46.0" fill="#FEFFFF" transform="matrix(1.00, 0.00, -0.00, -1.00, 426.5, 569.0)"> </text><text xml:space="preserve" font-family="Avenir-Medium" font-size="46.0" fill="#FF260F" transform="matrix(1.00, 0.00, -0.00, -1.00, 439.3, 569.0)">H</text><text xml:space="preserve" font-family="Avenir-Medium" font-size="46.0" fill="#FF260F" transform="matrix(1.00, 0.00, -0.00, -1.00, 473.4, 569.0)">a</text><text xml:space="preserve" font-family="Avenir-Medium" font-size="46.0" fill="#FF260F" transform="matrix(1.00, 0.00, -0.00, -1.00, 497.3, 569.0)">n</text><text xml:space="preserve" font-family="Avenir-Medium" font-size="46.0" fill="#FF260F" transform="matrix(1.00, 0.00, -0.00, -1.00, 522.8, 569.0)">d</text><text xml:space="preserve" font-family="Avenir-Medium" font-size="46.0" fill="#FF260F" transform="matrix(1.00, 0.00, -0.00, -1.00, 550.9, 569.0)">s</text><text xml:space="preserve" font-family="Avenir-Medium" font-size="46.0" fill="#FF260F" transform="matrix(1.00, 0.00, -0.00, -1.00, 571.4, 569.0)">-</text><text xml:space="preserve" font-family="Avenir-Medium" font-size="46.0" fill="#FF260F" transform="matrix(1.00, 0.00, -0.00, -1.00, 585.9, 569.0)">o</text><text xml:space="preserve" font-family="Avenir-Medium" font-size="46.0" fill="#FF260F" transform="matrix(1.00, 0.00, -0.00, -1.00, 613.2, 569.0)">n</text><text xml:space="preserve" font-family="Avenir-Medium" font-size="46.0" fill="#FF260F" transform="matrix(1.00, 0.00, -0.00, -1.00, 638.8, 569.0)">-</text><text xml:space="preserve" font-family="Avenir-Medium" font-size="46.0" fill="#FF260F" transform="matrix(1.00, 0.00, -0.00, -1.00, 653.3, 569.0)">s</text><text xml:space="preserve" font-family="Avenir-Medium" font-size="46.0" fill="#FF260F" transform="matrix(1.00, 0.00, -0.00, -1.00, 673.8, 569.0)">e</text><text xml:space="preserve" font-family="Avenir-Medium" font-size="46.0" fill="#FF260F" transform="matrix(1.00, 0.00, -0.00, -1.00, 699.3, 569.0)">s</text><text xml:space="preserve" font-family="Avenir-Medium" font-size="46.0" fill="#FF260F" transform="matrix(1.00, 0.00, -0.00, -1.00, 719.8, 569.0)">s</text><text xml:space="preserve" font-family="Avenir-Medium" font-size="46.0" fill="#FF260F" transform="matrix(1.00, 0.00, -0.00, -1.00, 740.2, 569.0)">i</text><text xml:space="preserve" font-family="Avenir-Medium" font-size="46.0" fill="#FF260F" transform="matrix(1.00, 0.00, -0.00, -1.00, 751.2, 569.0)">o</text><text xml:space="preserve" font-family="Avenir-Medium" font-size="46.0" fill="#FF260F" transform="matrix(1.00, 0.00, -0.00, -1.00, 778.5, 569.0)">n</text><text xml:space="preserve" font-family="Helvetica-Light" font-size="18.0" fill="#FEFFFF" transform="matrix(1.00, 0.00, -0.00, -1.00, 501.0, 17.0)">1</text><text xml:space="preserve" font-family="Helvetica-Light" font-size="18.0" fill="#FEFFFF" transform="matrix(1.00, 0.00, -0.00, -1.00, 511.0, 17.0)">2</text><image xlink:href="DF093B9896C1C1EA78D42A80A4AAAE14.png" width="225.00" height="225.00" transform="matrix(1.19, 0.00, -0.00, -1.19, 378.0, 471.0)"></image></g></svg>