<?xml version="1.0" encoding="UTF-8" standalone="no"?><svg xmlns="http://www.w3.org/2000/svg" xmlns:xlink="http://www.w3.org/1999/xlink" clip-rule="evenodd" stroke-miterlimit="4.00" viewBox="0 0 1024 768"><desc>SVG generated by Keynote</desc><defs></defs><g transform="matrix(1.00, 0.00, -0.00, -1.00, 0.0, 768.0)"><path d="M 0.0 768.0 L 1024.0 768.0 L 1024.0 0.0 L 0.0 0.0 Z M 0.0 768.0 " fill="#000000"></path><text xml:space="preserve" font-family="Avenir-Book" font-size="69.0" fill="#FFDF24" transform="matrix(1.00, 0.00, -0.00, -1.00, 124.0, 472.0)">B</text><text xml:space="preserve" font-family="Avenir-Book" font-size="69.0" fill="#FFDF24" transform="matrix(1.00, 0.00, -0.00, -1.00, 167.5, 472.0)">a</text><text xml:space="preserve" font-family="Avenir-Book" font-size="69.0" fill="#FFDF24" transform="matrix(1.00, 0.00, -0.00, -1.00, 203.3, 472.0)">s</text><text xml:space="preserve" font-family="Avenir-Book" font-size="69.0" fill="#FFDF24" transform="matrix(1.00, 0.00, -0.00, -1.00, 232.7, 472.0)">i</text><text xml:space="preserve" font-family="Avenir-Book" font-size="69.0" fill="#FFDF24" transform="matrix(1.00, 0.00, -0.00, -1.00, 249.2, 472.0)">c</text><text xml:space="preserve" font-family="Avenir-Book" font-size="69.0" fill="#FFDF24" transform="matrix(1.00, 0.00, -0.00, -1.00, 282.5, 472.0)">s</text><text xml:space="preserve" font-family="Avenir-Book" font-size="69.0" fill="#FFDF24" transform="matrix(1.00, 0.00, -0.00, -1.00, 311.9, 472.0)"> </text><text xml:space="preserve" font-family="Avenir-Book" font-size="69.0" fill="#FFDF24" transform="matrix(1.00, 0.00, -0.00, -1.00, 331.1, 472.0)">o</text><text xml:space="preserve" font-family="Avenir-Book" font-size="69.0" fill="#FFDF24" transform="matrix(1.00, 0.00, -0.00, -1.00, 372.0, 472.0)">f</text><text xml:space="preserve" font-family="Avenir-Book" font-size="69.0" fill="#FFDF24" transform="matrix(1.00, 0.00, -0.00, -1.00, 392.4, 472.0)"> </text><text xml:space="preserve" font-family="Avenir-Book" font-size="69.0" fill="#FFDF24" transform="matrix(1.00, 0.00, -0.00, -1.00, 411.6, 472.0)">G</text><text xml:space="preserve" font-family="Avenir-Book" font-size="69.0" fill="#FFDF24" transform="matrix(1.00, 0.00, -0.00, -1.00, 465.3, 472.0)">I</text><text xml:space="preserve" font-family="Avenir-Book" font-size="69.0" fill="#FFDF24" transform="matrix(1.00, 0.00, -0.00, -1.00, 483.5, 472.0)">T</text><text xml:space="preserve" font-family="Avenir-Book" font-size="69.0" fill="#FFDF24" transform="matrix(1.00, 0.00, -0.00, -1.00, 523.1, 472.0)"> </text><text xml:space="preserve" font-family="Avenir-Book" font-size="69.0" fill="#FFDF24" transform="matrix(1.00, 0.00, -0.00, -1.00, 542.3, 472.0)">a</text><text xml:space="preserve" font-family="Avenir-Book" font-size="69.0" fill="#FFDF24" transform="matrix(1.00, 0.00, -0.00, -1.00, 578.1, 472.0)">n</text><text xml:space="preserve" font-family="Avenir-Book" font-size="69.0" fill="#FFDF24" transform="matrix(1.00, 0.00, -0.00, -1.00, 616.5, 472.0)">d</text><text xml:space="preserve" font-family="Avenir-Book" font-size="69.0" fill="#FFDF24" transform="matrix(1.00, 0.00, -0.00, -1.00, 658.6, 472.0)"> </text><text xml:space="preserve" font-family="Avenir-Book" font-size="69.0" fill="#FFDF24" transform="matrix(1.00, 0.00, -0.00, -1.00, 677.8, 472.0)">H</text><text xml:space="preserve" font-family="Avenir-Book" font-size="69.0" fill="#FFDF24" transform="matrix(1.00, 0.00, -0.00, -1.00, 727.6, 472.0)">e</text><text xml:space="preserve" font-family="Avenir-Book" font-size="69.0" fill="#FFDF24" transform="matrix(1.00, 0.00, -0.00, -1.00, 766.0, 472.0)">r</text><text xml:space="preserve" font-family="Avenir-Book" font-size="69.0" fill="#FFDF24" transform="matrix(1.00, 0.00, -0.00, -1.00, 787.6, 472.0)">o</text><text xml:space="preserve" font-family="Avenir-Book" font-size="69.0" fill="#FFDF24" transform="matrix(1.00, 0.00, -0.00, -1.00, 828.6, 472.0)">k</text><text xml:space="preserve" font-family="Avenir-Book" font-size="69.0" fill="#FFDF24" transform="matrix(1.00, 0.00, -0.00, -1.00, 861.8, 472.0)">u</text><image xlink:href="6D4A2532C91BA8BF1370EA831F849697.png" width="477.00" height="167.00" transform="matrix(1.00, 0.00, -0.00, -1.00, 461.0, 356.0)"></image><image xlink:href="E282D8E9C16E9D897EFBEAC78788FEFD.png" width="224.00" height="120.00" transform="matrix(1.21, 0.00, -0.00, -1.21, 113.0, 345.0)"></image><text xml:space="preserve" font-family="Helvetica-Light" font-size="18.0" fill="#FEFFFF" transform="matrix(1.00, 0.00, -0.00, -1.00, 506.0, 17.0)">1</text></g></svg>